<svg width="100" height="28" viewBox="0 0 100 28" fill="none" xmlns="http://www.w3.org/2000/svg">
<path d="M40.6169 10.3349L38.7344 6.92433H38.2103V10.3349H35.9956V1.29174H39.6867C40.3155 1.27349 40.9399 1.4024 41.5101 1.66822C41.9803 1.88678 42.3738 2.24174 42.6396 2.68696C42.8961 3.13609 43.0262 3.64629 43.0161 4.1634C43.023 4.74055 42.8445 5.30468 42.5067 5.77271C42.1397 6.26207 41.6203 6.61532 41.0303 6.7767L43.1194 10.3571L40.6169 10.3349ZM38.2103 5.3667H39.6055C39.7694 5.37933 39.9341 5.35905 40.0901 5.30707C40.246 5.25509 40.39 5.17246 40.5135 5.06403C40.709 4.83435 40.8164 4.54257 40.8164 4.24092C40.8164 3.93928 40.709 3.64747 40.5135 3.41779C40.3894 3.31067 40.2452 3.22938 40.0893 3.17867C39.9333 3.12797 39.7689 3.10888 39.6055 3.12251H38.2398L38.2103 5.3667Z" fill="#636464"/>
<path d="M51.1438 7.27117H46.1608C46.1644 7.65593 46.318 8.02412 46.589 8.2973C46.8437 8.53259 47.1799 8.65964 47.5265 8.65163C47.7654 8.66738 48.0034 8.60924 48.2081 8.4851C48.4128 8.36096 48.5743 8.17684 48.6708 7.95773H51.0183C50.8975 8.43149 50.6714 8.87194 50.3571 9.24639C50.0427 9.62084 49.648 9.91968 49.2023 10.1207C48.7023 10.3397 48.1609 10.4479 47.6151 10.4381C46.9596 10.4503 46.3117 10.2953 45.7327 9.98783C45.1898 9.69221 44.7438 9.24618 44.4481 8.70331C44.127 8.0996 43.9668 7.42329 43.9831 6.73965C43.969 6.05947 44.1264 5.38671 44.4408 4.78337C44.7317 4.23517 45.1787 3.78559 45.7253 3.49149C46.3076 3.18548 46.9574 3.03065 47.6151 3.04118C48.2627 3.02921 48.9027 3.18158 49.4754 3.4841C50.009 3.77035 50.4496 4.20323 50.7452 4.73169C51.0596 5.31374 51.2173 5.96753 51.2029 6.62892C51.1974 6.84407 51.1777 7.05863 51.1438 7.27117ZM48.9291 6.04572C48.9374 5.87635 48.9071 5.70734 48.8406 5.55135C48.7741 5.39536 48.6731 5.25645 48.5453 5.14509C48.2728 4.9227 47.9298 4.80491 47.5782 4.8129C47.2377 4.80261 46.9049 4.91529 46.6407 5.13033C46.3811 5.37 46.2161 5.69477 46.1756 6.04572H48.9291Z" fill="#636464"/>
<path d="M52.362 4.78378C52.6545 4.23921 53.098 3.79063 53.6391 3.4919C54.2165 3.18681 54.8613 3.03196 55.5142 3.0416C56.3318 3.02161 57.1316 3.28213 57.7806 3.77982C58.4015 4.28461 58.8227 4.99367 58.9691 5.78039H56.6216C56.5531 5.53309 56.4025 5.31647 56.1945 5.16619C55.9865 5.01591 55.7336 4.94093 55.4773 4.95358C55.29 4.94888 55.1044 4.98935 54.936 5.07159C54.7677 5.15383 54.6216 5.2754 54.5102 5.42603C54.273 5.8354 54.1481 6.30016 54.1481 6.77329C54.1481 7.24643 54.273 7.71118 54.5102 8.12055C54.6216 8.27118 54.7677 8.39276 54.936 8.47499C55.1044 8.55723 55.29 8.5977 55.4773 8.593C55.7336 8.60565 55.9865 8.53068 56.1945 8.3804C56.4025 8.23012 56.5531 8.01349 56.6216 7.7662H58.9691C58.8128 8.54678 58.39 9.24877 57.7732 9.75201C57.1273 10.2502 56.3297 10.5109 55.5142 10.4902C54.8609 10.5034 54.2152 10.3484 53.6391 10.0399C53.0985 9.74383 52.655 9.29776 52.362 8.75541C52.0612 8.14583 51.9048 7.47519 51.9048 6.79544C51.9048 6.11568 52.0612 5.44505 52.362 4.83547V4.78378Z" fill="#636464"/>
<path d="M60.2756 2.05983C60.1578 1.95385 60.064 1.82397 60.0003 1.67885C59.9367 1.53373 59.9047 1.37673 59.9065 1.21827C59.903 1.05632 59.9341 0.895461 59.9977 0.7465C60.0614 0.597539 60.1561 0.463905 60.2756 0.354546C60.5404 0.135487 60.8732 0.015625 61.2169 0.015625C61.5605 0.015625 61.8934 0.135487 62.1581 0.354546C62.2766 0.464273 62.3703 0.598155 62.4327 0.747153C62.4951 0.896152 62.5248 1.05681 62.5198 1.21827C62.5231 1.37624 62.4925 1.53306 62.4301 1.67822C62.3677 1.82337 62.2749 1.95348 62.1581 2.05983C61.8934 2.27889 61.5605 2.39875 61.2169 2.39875C60.8732 2.39875 60.5404 2.27889 60.2756 2.05983ZM62.3131 3.14502V10.3353H60.0985V3.14502H62.3131Z" fill="#636464"/>
<path d="M67.0378 3.35139C67.4471 3.13668 67.9045 3.02997 68.3666 3.04135C68.9347 3.03705 69.4925 3.19313 69.9759 3.49165C70.4679 3.80791 70.8616 4.25537 71.1128 4.78354C71.39 5.39585 71.5335 6.06029 71.5335 6.73245C71.5335 7.40461 71.39 8.06902 71.1128 8.68134C70.8618 9.21157 70.4681 9.66146 69.9759 9.98061C69.4961 10.2879 68.9363 10.4471 68.3666 10.4383C67.9079 10.4476 67.4541 10.3436 67.0452 10.1356C66.6919 9.93759 66.3947 9.65311 66.1815 9.30883V13.7381H63.9668V3.14469H66.1815V4.14129C66.399 3.8128 66.6928 3.5418 67.0378 3.35139ZM68.8317 5.43317C68.6875 5.28102 68.5134 5.16047 68.3202 5.07914C68.1271 4.99781 67.9191 4.95746 67.7096 4.9607C67.5004 4.95714 67.2928 4.99808 67.1006 5.0808C66.9085 5.16353 66.7361 5.28617 66.5949 5.44056C66.2983 5.81009 66.1367 6.26971 66.1367 6.74351C66.1367 7.21731 66.2983 7.67695 66.5949 8.04648C66.7367 8.19954 66.9094 8.32077 67.1016 8.4022C67.2937 8.48364 67.5009 8.52343 67.7096 8.51893C67.9188 8.52249 68.1263 8.48157 68.3185 8.39885C68.5107 8.31612 68.6831 8.19349 68.8243 8.03909C69.1461 7.68222 69.3133 7.21237 69.2894 6.73245C69.3037 6.49629 69.2706 6.25966 69.1919 6.03651C69.1133 5.81337 68.9908 5.60821 68.8317 5.43317Z" fill="#636464"/>
<path d="M79.4694 7.27117H74.4791C74.4891 7.65601 74.6448 8.02272 74.9146 8.29731C75.1685 8.53395 75.5052 8.66122 75.8522 8.65164C76.091 8.66738 76.329 8.60925 76.5337 8.4851C76.7384 8.36096 76.8999 8.17685 76.9964 7.95773H79.3439C79.2215 8.42434 78.9971 8.858 78.6869 9.22747C78.3718 9.61386 77.9695 9.91998 77.5131 10.1207C77.0129 10.339 76.4717 10.4472 75.926 10.4381C75.2704 10.4503 74.6226 10.2953 74.0435 9.98783C73.5006 9.69222 73.0546 9.24619 72.759 8.70332C72.4582 8.09373 72.3018 7.4231 72.3018 6.74335C72.3018 6.06359 72.4582 5.39296 72.759 4.78337C73.0494 4.23727 73.4934 3.78816 74.0361 3.49149C74.6211 3.18547 75.2733 3.03068 75.9334 3.04119C76.5786 3.02918 77.2162 3.18159 77.7863 3.4841C78.3229 3.7662 78.7645 4.20013 79.056 4.73169C79.3737 5.31249 79.5316 5.96717 79.5137 6.62892C79.5133 6.84375 79.4985 7.05831 79.4694 7.27117ZM77.2548 6.04572C77.2615 5.87583 77.2299 5.70662 77.1621 5.55068C77.0944 5.39473 76.9923 5.25608 76.8635 5.14509C76.5956 4.91963 76.2538 4.8013 75.9038 4.81291C75.5629 4.79989 75.2292 4.91289 74.9663 5.13034C74.704 5.36885 74.5363 5.69377 74.4938 6.04572H77.2548Z" fill="#636464"/>
<path d="M38.2102 16.5656V18.3964H41.1631V20.0943H38.2102V22.0801H41.547V23.8445H36.0029V14.8013H41.547V16.5656H38.2102Z" fill="#636464"/>
<path d="M47.2311 23.8446L45.8506 21.8588L44.6916 23.8594H42.3072L44.6768 20.1683L42.2407 16.647H44.7138L46.0942 18.6328L47.2532 16.647H49.6377L47.2311 20.2716L49.7041 23.8372L47.2311 23.8446Z" fill="#636464"/>
<path d="M50.5755 18.2931C50.866 17.747 51.3099 17.2979 51.8527 17.0012C52.4281 16.6912 53.0743 16.536 53.7277 16.5509C54.5431 16.5308 55.3406 16.7914 55.9867 17.2891C56.6116 17.7904 57.0338 18.5011 57.1752 19.2897H54.8351C54.7664 19.0411 54.6146 18.8235 54.4051 18.6731C54.1956 18.5227 53.941 18.4485 53.6835 18.4629C53.4961 18.4575 53.3102 18.4978 53.1417 18.58C52.9733 18.6623 52.8273 18.7843 52.7164 18.9353C52.4841 19.345 52.362 19.8079 52.362 20.2789C52.362 20.7498 52.4841 21.2128 52.7164 21.6224C52.8273 21.7735 52.9733 21.8955 53.1417 21.9777C53.3102 22.06 53.4961 22.1002 53.6835 22.0949C53.941 22.1093 54.1956 22.0351 54.4051 21.8847C54.6146 21.7343 54.7664 21.5167 54.8351 21.2681H57.1752C57.0286 22.0524 56.604 22.7575 55.9793 23.2539C55.336 23.7516 54.5408 24.0123 53.7277 23.9921C53.0743 24.007 52.4281 23.8518 51.8527 23.5418C51.3099 23.2451 50.866 22.796 50.5755 22.2499C50.2759 21.6413 50.1201 20.972 50.1201 20.2937C50.1201 19.6153 50.2759 18.946 50.5755 18.3374V18.2931Z" fill="#636464"/>
<path d="M64.7567 17.4298C65.2788 18.0599 65.5426 18.8645 65.4949 19.6814V23.8818H63.2802V19.9397C63.3046 19.5324 63.1726 19.131 62.9111 18.8177C62.6377 18.5623 62.2776 18.4203 61.9035 18.4203C61.5294 18.4203 61.1692 18.5623 60.8958 18.8177C60.6316 19.1295 60.4992 19.532 60.5267 19.9397V23.8449H58.312V14.3071H60.5267V17.6217C60.764 17.3018 61.0791 17.0477 61.4421 16.8835C61.8473 16.6897 62.2923 16.5936 62.7413 16.603C63.1174 16.5837 63.4931 16.6478 63.8416 16.7908C64.19 16.9337 64.5025 17.1519 64.7567 17.4298Z" fill="#636464"/>
<path d="M67.0155 18.2932C67.2669 17.763 67.6637 17.315 68.1597 17.0013C68.6416 16.6994 69.2004 16.543 69.769 16.551C70.2334 16.5406 70.6929 16.6472 71.1052 16.861C71.4634 17.051 71.7662 17.3308 71.9837 17.6731V16.6912H74.1983V23.8815H71.9837V22.8628C71.7626 23.2073 71.4545 23.4875 71.0904 23.6748C70.6781 23.8886 70.2186 23.9952 69.7543 23.9849C69.1899 23.9878 68.6366 23.829 68.1597 23.5272C67.6634 23.2106 67.2668 22.7602 67.0155 22.2279C66.727 21.6169 66.5855 20.947 66.6021 20.2716C66.5788 19.5885 66.7207 18.9099 67.0155 18.2932ZM71.526 18.9502C71.3822 18.802 71.21 18.6841 71.0198 18.6036C70.8296 18.5232 70.6252 18.4817 70.4187 18.4817C70.2121 18.4817 70.0077 18.5232 69.8175 18.6036C69.6273 18.6841 69.4551 18.802 69.3113 18.9502C69.1534 19.1246 69.0316 19.3285 68.9531 19.5503C68.8745 19.772 68.8407 20.0072 68.8536 20.2421C68.8289 20.723 68.9932 21.1946 69.3113 21.5561C69.4546 21.7053 69.6266 21.8239 69.8168 21.905C70.0071 21.9861 70.2118 22.0279 70.4187 22.0279C70.6255 22.0279 70.8302 21.9861 71.0205 21.905C71.2107 21.8239 71.3827 21.7053 71.526 21.5561C71.8219 21.1877 71.9833 20.7294 71.9833 20.2568C71.9833 19.7843 71.8219 19.326 71.526 18.9576V18.9502Z" fill="#636464"/>
<path d="M82.1859 17.4298C82.7107 18.0584 82.9748 18.8641 82.9241 19.6814V23.8818H80.7095V19.9397C80.7349 19.531 80.5998 19.1284 80.333 18.8177C80.06 18.5645 79.7014 18.4238 79.329 18.4238C78.9567 18.4238 78.598 18.5645 78.325 18.8177C78.0582 19.1284 77.9231 19.531 77.9485 19.9397V23.8449H75.7339V16.6916H77.9485V17.6439C78.1838 17.3249 78.4962 17.0709 78.8566 16.9057C79.2532 16.7184 79.6877 16.6249 80.1263 16.6325C80.507 16.6065 80.8889 16.6644 81.2447 16.8022C81.6006 16.9399 81.9219 17.1542 82.1859 17.4298Z" fill="#636464"/>
<path d="M88.5344 16.8611C88.8963 17.0486 89.202 17.3288 89.4202 17.6731V16.6913H91.6349V23.8668C91.6462 24.4894 91.5122 25.1061 91.2436 25.668C90.9832 26.2048 90.5662 26.65 90.0477 26.9451C89.4352 27.2865 88.7404 27.4525 88.0398 27.425C87.1205 27.4724 86.2115 27.2127 85.456 26.6868C85.1322 26.4461 84.8634 26.1393 84.6674 25.7867C84.4714 25.4341 84.3527 25.0439 84.3191 24.6419H86.4969C86.5284 24.7781 86.588 24.9063 86.6719 25.0182C86.7558 25.13 86.8621 25.2231 86.9841 25.2915C87.2719 25.4617 87.6023 25.5462 87.9364 25.5351C88.136 25.5461 88.3358 25.5165 88.5236 25.4479C88.7114 25.3794 88.8833 25.2735 89.029 25.1365C89.1784 24.9659 89.2915 24.7666 89.3613 24.5508C89.4311 24.3351 89.4562 24.1073 89.435 23.8815V22.8628C89.2144 23.2096 88.9063 23.4923 88.5417 23.6822C88.1366 23.9017 87.681 24.0112 87.2203 23.9996C86.6485 24.0068 86.0868 23.8478 85.6036 23.5419C85.1114 23.2228 84.7178 22.7729 84.4668 22.2427C84.1758 21.6323 84.0317 20.9624 84.046 20.2864C84.031 19.6151 84.1752 18.9497 84.4668 18.3449C84.7179 17.8167 85.1117 17.3692 85.6036 17.053C86.0876 16.7497 86.6492 16.5933 87.2203 16.6027C87.6729 16.5797 88.1242 16.6684 88.5344 16.8611ZM88.9625 18.9502C88.8187 18.802 88.6466 18.6841 88.4564 18.6037C88.2662 18.5232 88.0617 18.4817 87.8552 18.4817C87.6487 18.4817 87.4442 18.5232 87.254 18.6037C87.0638 18.6841 86.8917 18.802 86.7479 18.9502C86.59 19.1246 86.4682 19.3286 86.3896 19.5503C86.3111 19.7721 86.2773 20.0072 86.2902 20.2421C86.2655 20.7231 86.4297 21.1946 86.7479 21.5561C86.8912 21.7053 87.0631 21.824 87.2534 21.905C87.4437 21.9861 87.6484 22.0279 87.8552 22.0279C88.062 22.0279 88.2667 21.9861 88.457 21.905C88.6473 21.824 88.8192 21.7053 88.9625 21.5561C89.2585 21.1878 89.4198 20.7294 89.4198 20.2569C89.4198 19.7843 89.2585 19.326 88.9625 18.9576V18.9502Z" fill="#636464"/>
<path d="M99.9621 20.7809H94.9718C94.9792 21.1641 95.1354 21.5295 95.4073 21.7996C95.6585 22.0358 95.9928 22.1632 96.3375 22.154C96.5778 22.1724 96.8178 22.1154 97.0242 21.9911C97.2306 21.8667 97.3931 21.6811 97.4891 21.46H99.8293C99.7141 21.9302 99.4918 22.3673 99.1796 22.7372C98.8593 23.1194 98.4551 23.4226 97.9985 23.623C97.5023 23.8464 96.9628 23.9573 96.4187 23.9478C95.7629 23.962 95.1146 23.8069 94.5362 23.4975C93.9893 23.2014 93.5405 22.7525 93.2443 22.2057C92.9257 21.6039 92.768 20.93 92.7866 20.2494C92.7694 19.5697 92.9243 18.8968 93.2369 18.2931C93.5321 17.748 93.9781 17.2995 94.5215 17.0012C95.1037 16.7101 95.7456 16.5586 96.3965 16.5586C97.0474 16.5586 97.6894 16.7101 98.2716 17.0012C98.8072 17.2881 99.2482 17.724 99.5413 18.2562C99.8548 18.8359 100.013 19.4871 99.999 20.146C99.999 20.338 99.9843 20.552 99.9621 20.7809ZM97.7475 19.5554C97.7542 19.3856 97.7226 19.2163 97.6548 19.0604C97.5871 18.9044 97.485 18.7658 97.3562 18.6548C97.1625 18.4767 96.9231 18.356 96.6647 18.3062C96.4063 18.2565 96.1391 18.2797 95.8932 18.3731C95.6472 18.4666 95.4321 18.6267 95.272 18.8355C95.1118 19.0444 95.013 19.2936 94.9865 19.5554H97.7475Z" fill="#636464"/>
<path d="M27.388 27.3882V21.9106H19.5112C21.1303 23.5523 22.5343 25.3928 23.6896 27.3882H27.388Z" fill="#3174B7"/>
<path d="M19.5479 5.47758H27.3877V0H23.6966C22.5506 1.99375 21.1566 3.83426 19.5479 5.47758Z" fill="#3174B7"/>
<path d="M5.47759 13.1475C3.67474 13.5133 1.83959 13.6963 0 13.6937V13.738C1.83984 13.7379 3.67499 13.9234 5.47759 14.2917V13.1475Z" fill="#3174B7"/>
<path d="M15.0894 0V5.47758H19.5187C21.1326 3.83513 22.5316 1.99459 23.6822 0H15.0894Z" fill="#78C1B2"/>
<path d="M5.47759 5.47758H10.9847V0H0V13.694C1.83959 13.6965 3.67474 13.5135 5.47759 13.1477V5.47758Z" fill="#78C1B2"/>
<path d="M9.59668 27.3882H23.6893C22.534 25.3928 21.13 23.5523 19.511 21.9106H9.59668V27.3882Z" fill="#F2774D"/>
<path d="M5.47759 27.388V14.2846C3.67499 13.9163 1.83984 13.7308 0 13.731V27.388H5.47759Z" fill="#F2774D"/>
<path d="M11.9442 10.9556C11.206 11.3247 10.394 11.6495 9.59668 11.9521V15.4808C10.3718 15.7687 11.1322 16.0788 11.8778 16.4331H27.3804V10.9556H11.9442Z" fill="#3174B7"/>
<path d="M9.59668 15.4805V16.4328H11.8778C11.1322 16.0784 10.3718 15.7684 9.59668 15.4805Z" fill="#F2774D"/>
<path d="M9.59668 10.9556V11.9521C10.394 11.6495 11.1839 11.3247 11.9442 10.9556H9.59668Z" fill="#78C1B2"/>
</svg>
